<?xml version="1.0" encoding="utf-8"?>
<!-- Generator: Adobe Illustrator 26.5.0, SVG Export Plug-In . SVG Version: 6.00 Build 0)  -->
<svg version="1.1" id="Capa_1" xmlns="http://www.w3.org/2000/svg" xmlns:xlink="http://www.w3.org/1999/xlink" x="0px" y="0px"
	 viewBox="0 0 174.56 170.08" style="enable-background:new 0 0 174.56 170.08;" xml:space="preserve">
<style type="text/css">
	.st0{fill:#00E6B2;}
</style>
<path class="st0" d="M148.11,37.98L87.52,99.76c-3.24,3.37-8.76,3.37-12.19,0.19L44.27,70.93c-3.43-3.18-3.62-8.8-0.38-12.17
	c3.24-3.37,8.76-3.56,12.38-0.37L81.04,81.6l55.06-55.98C122.39,14.39,104.86,7.65,85.62,7.65c-43.63,0-78.88,34.64-78.88,77.51
	s35.25,77.51,78.88,77.51s78.88-34.64,78.88-77.51C164.5,67.37,158.4,51.08,148.11,37.98z M111.53,122.23h-58.3
	c-4.76,0-8.76-3.93-8.76-8.61c0-4.68,4-8.61,8.76-8.61h58.3c4.76,0,8.76,3.93,8.76,8.61C120.29,118.49,116.48,122.23,111.53,122.23z
	"/>
</svg>
